<svg xmlns="http://www.w3.org/2000/svg" xmlns:xlink="http://www.w3.org/1999/xlink" width="19" height="19" viewBox="0 0 19 19">
  <defs>
    <clipPath id="clip-path">
      <rect id="Rechteck_541" data-name="Rechteck 541" width="13.412" height="13.472" fill="none"/>
    </clipPath>
    <clipPath id="clip-path-2">
      <path id="Pfad_5550" data-name="Pfad 5550" d="M18.593,12.425a5.551,5.551,0,0,0-4.7,8.5l.132.21-.561,2.047,2.1-.551.2.12a5.543,5.543,0,0,0,2.825.774h0a5.551,5.551,0,0,0,.015-11.1h-.013" transform="translate(-13.04 -12.425)" fill="none"/>
    </clipPath>
    <linearGradient id="linear-gradient" x1="-0.103" y1="1.108" x2="-0.095" y2="1.108" gradientUnits="objectBoundingBox">
      <stop offset="0" stop-color="#57d163"/>
      <stop offset="1" stop-color="#23b33a"/>
    </linearGradient>
  </defs>
  <g id="Gruppe_1611" data-name="Gruppe 1611" transform="translate(-0.051)">
    <rect id="Rechteck_1020" data-name="Rechteck 1020" width="19" height="19" rx="5" transform="translate(0.051)" fill="#1dc34f"/>
    <g id="Gruppe_1105" data-name="Gruppe 1105" transform="translate(2.804 2.416)">
      <g id="Gruppe_1100" data-name="Gruppe 1100">
        <g id="Gruppe_1099" data-name="Gruppe 1099" clip-path="url(#clip-path)">
          <path id="Pfad_5549" data-name="Pfad 5549" d="M0,13.472l.947-3.459a6.678,6.678,0,1,1,5.787,3.344h0a6.674,6.674,0,0,1-3.191-.813Z" fill="#fff"/>
        </g>
      </g>
      <g id="Gruppe_1102" data-name="Gruppe 1102" transform="translate(1.129 1.137)">
        <g id="Gruppe_1101" data-name="Gruppe 1101" clip-path="url(#clip-path-2)">
          <rect id="Rechteck_542" data-name="Rechteck 542" width="11.173" height="11.167" transform="translate(-0.067 0) rotate(-0.34)" fill="url(#linear-gradient)"/>
        </g>
      </g>
      <g id="Gruppe_1104" data-name="Gruppe 1104">
        <g id="Gruppe_1103" data-name="Gruppe 1103" clip-path="url(#clip-path)">
          <path id="Pfad_5551" data-name="Pfad 5551" d="M38.532,39.874c-.125-.278-.257-.283-.375-.288l-.32,0a.613.613,0,0,0-.445.209,1.871,1.871,0,0,0-.584,1.392,3.247,3.247,0,0,0,.681,1.726,6.847,6.847,0,0,0,2.85,2.519c1.409.556,1.7.445,2,.418a1.685,1.685,0,0,0,1.126-.793,1.4,1.4,0,0,0,.1-.793c-.042-.07-.153-.111-.32-.195s-.987-.487-1.14-.543-.264-.083-.375.084-.431.543-.528.654-.195.125-.362.042a4.555,4.555,0,0,1-1.342-.828,5.035,5.035,0,0,1-.928-1.155c-.1-.167-.01-.257.073-.34s.167-.195.25-.292a1.131,1.131,0,0,0,.167-.278.307.307,0,0,0-.014-.292c-.042-.083-.366-.909-.514-1.239" transform="translate(-33.467 -35.99)" fill="#fff" fill-rule="evenodd"/>
        </g>
      </g>
    </g>
  </g>
</svg>
